<svg xmlns="http://www.w3.org/2000/svg" width="500" height="500" viewBox="0 0 500 500" version="1.1"><path d="M 224.691 98.626 C 224.247 99.080, 222.672 99.505, 221.191 99.572 C 214.867 99.856, 213.912 100.049, 214.457 100.931 C 214.774 101.443, 214.506 102.187, 213.862 102.585 C 213.131 103.037, 212.959 102.876, 213.405 102.155 C 213.827 101.470, 213.483 101, 212.559 101 C 211.702 101, 211 101.338, 210.999 101.750 C 210.999 102.162, 209.905 102.563, 208.568 102.640 C 205.144 102.837, 192.235 108.945, 191.568 110.683 C 191.263 111.477, 190.541 111.835, 189.963 111.477 C 189.385 111.120, 188.236 111.389, 187.409 112.076 C 186.198 113.081, 186.158 113.499, 187.203 114.227 C 188.077 114.836, 187.807 114.938, 186.375 114.538 C 184.844 114.110, 182.818 115.077, 179.125 117.996 C 176.306 120.224, 174 122.513, 174 123.082 C 174 123.652, 174.410 123.864, 174.912 123.554 C 175.414 123.244, 175.727 123.655, 175.608 124.466 C 175.489 125.278, 175.191 126.068, 174.946 126.221 C 174.701 126.374, 174.609 126.316, 174.741 126.092 C 174.874 125.868, 174.449 125.041, 173.797 124.256 C 172.804 123.059, 172.089 123.432, 169.390 126.555 C 167.545 128.691, 166.324 131.088, 166.532 132.168 C 166.732 133.205, 166.462 133.785, 165.931 133.458 C 165.401 133.130, 165.277 132.330, 165.656 131.681 C 166.034 131.031, 165.366 131.357, 164.172 132.405 C 162.977 133.453, 162 134.860, 162 135.533 C 162 136.206, 160.988 137.507, 159.750 138.424 C 158.512 139.342, 158.175 139.813, 159 139.472 C 159.825 139.131, 159.626 139.560, 158.559 140.426 C 157.491 141.292, 156.946 142, 157.348 142 C 157.749 142, 157.149 142.997, 156.014 144.215 C 154.880 145.433, 154.182 147.031, 154.464 147.767 C 154.746 148.502, 154.565 148.849, 154.061 148.537 C 153.178 147.992, 151.395 151.712, 151.802 153.250 C 151.911 153.662, 151.599 154, 151.109 154 C 149.912 154, 146.810 161.883, 147.541 163.066 C 147.858 163.580, 147.593 164, 146.952 164 C 146.311 164, 146.045 164.675, 146.362 165.500 C 146.678 166.325, 146.543 167, 146.061 167 C 144.098 167, 141.824 185.432, 142.354 197.059 C 142.916 209.393, 146.065 223.897, 148.473 225.245 C 149.267 225.689, 149.666 226.706, 149.360 227.504 C 149.054 228.303, 150.391 231.778, 152.333 235.228 C 155.527 240.904, 160.195 247.638, 158.414 244 C 158.010 243.175, 158.065 242.851, 158.535 243.279 C 159.006 243.707, 159.482 244.673, 159.592 245.425 C 159.833 247.066, 170.951 259, 172.239 259 C 172.736 259, 173.822 259.679, 174.652 260.509 C 175.482 261.339, 176.644 261.720, 177.235 261.355 C 177.830 260.987, 178.022 261.155, 177.666 261.732 C 177.312 262.305, 177.778 263.387, 178.703 264.137 C 180.147 265.308, 180.274 265.288, 179.605 264 C 179.177 263.175, 179.755 263.625, 180.891 265 C 182.026 266.375, 182.966 267.076, 182.978 266.559 C 182.990 266.041, 183.661 266.491, 184.468 267.559 C 185.276 268.626, 185.951 269.130, 185.968 268.679 C 185.986 268.227, 186.723 268.580, 187.606 269.463 C 188.859 270.717, 189.523 270.811, 190.629 269.893 C 191.772 268.944, 191.924 269.035, 191.414 270.364 C 190.946 271.584, 191.718 272.402, 194.391 273.519 C 198.018 275.035, 198.869 276.345, 196.984 277.510 C 196.425 277.856, 196.266 278.670, 196.630 279.319 C 197.077 280.115, 196.855 280.093, 195.947 279.250 C 194.346 277.764, 192.623 277.580, 193.493 278.989 C 193.843 279.555, 193.442 279.723, 192.552 279.382 C 191.650 279.035, 191 279.319, 191 280.060 C 191 280.760, 190.737 281.071, 190.417 280.750 C 189.485 279.819, 183.500 282.701, 183.500 284.081 C 183.500 284.770, 182.825 285.518, 182 285.743 C 180.667 286.107, 180.667 286.034, 182 285.091 C 183.994 283.681, 182.714 283.717, 179.547 285.161 C 178.146 285.799, 177 286.725, 177 287.220 C 177 287.714, 176.607 287.875, 176.126 287.578 C 175.645 287.281, 174.098 288.107, 172.688 289.414 C 171.277 290.721, 169.871 291.537, 169.562 291.228 C 169.253 290.919, 169 291.192, 169 291.833 C 169 292.475, 168.438 292.888, 167.750 292.750 C 167.063 292.613, 166.624 293.096, 166.775 293.824 C 166.926 294.553, 166.627 294.887, 166.109 294.568 C 165.592 294.248, 163.768 295.165, 162.056 296.606 C 159.414 298.829, 159.134 299.474, 160.204 300.863 C 161.252 302.223, 161.120 302.207, 159.426 300.770 C 157.450 299.094, 157.244 299.188, 152.880 303.770 C 143.792 313.309, 139.059 321.575, 141.299 323.996 C 142.042 324.799, 142.073 325.055, 141.380 324.668 C 139.947 323.868, 139.605 333.638, 141.035 334.522 C 141.584 334.861, 141.793 335.525, 141.501 335.998 C 140.771 337.179, 143.210 346, 144.266 346 C 144.735 346, 144.822 346.478, 144.461 347.063 C 144.100 347.648, 144.557 348.958, 145.478 349.975 C 146.398 350.992, 147.242 352.440, 147.352 353.193 C 147.773 356.063, 153.143 364.030, 154.211 363.370 C 154.874 362.960, 155.024 363.152, 154.591 363.853 C 154.190 364.502, 154.560 365.278, 155.431 365.612 C 156.288 365.941, 156.782 366.544, 156.530 366.952 C 155.812 368.114, 161.709 373.298, 162.907 372.557 C 163.541 372.166, 163.757 372.469, 163.438 373.300 C 163.122 374.124, 164.046 375.455, 165.674 376.522 C 167.200 377.522, 169.344 379.175, 170.439 380.195 C 171.534 381.215, 173.031 381.818, 173.767 381.536 C 174.502 381.254, 174.850 381.433, 174.540 381.935 C 173.803 383.128, 177.800 385.896, 186.725 390.374 C 194.533 394.293, 195.490 394.603, 194.416 392.865 C 194.030 392.240, 195.016 392.683, 196.607 393.849 C 200.313 396.565, 213.030 399.707, 225.592 401.010 C 238.334 402.331, 260.542 400.661, 263.422 398.166 C 264.479 397.250, 265.004 397.081, 264.588 397.790 C 264.014 398.770, 264.514 398.927, 266.666 398.445 C 275.082 396.558, 281 394.624, 281 393.761 C 281 393.225, 281.628 393.027, 282.397 393.322 C 284.580 394.160, 296.272 388.270, 295.419 386.761 C 294.871 385.791, 294.998 385.769, 295.971 386.668 C 296.949 387.571, 298.343 387.155, 302.118 384.832 C 304.803 383.180, 307 381.417, 307 380.914 C 307 380.411, 307.614 380, 308.365 380 C 310.226 380, 315.140 376.035, 314.521 375.033 C 314.246 374.590, 314.778 373.613, 315.703 372.863 C 316.859 371.926, 317.149 371.890, 316.633 372.750 C 315.045 375.393, 317.683 373.799, 321.749 369.658 C 324.086 367.278, 325.661 364.960, 325.249 364.505 C 324.837 364.051, 325.012 363.972, 325.637 364.329 C 326.262 364.686, 327.329 364.308, 328.009 363.489 C 328.689 362.670, 328.919 362, 328.520 362 C 328.121 362, 329.191 360.775, 330.897 359.277 C 332.604 357.780, 334 355.945, 334 355.200 C 334 354.456, 335.350 352.496, 337 350.846 C 339.943 347.904, 341.121 345.189, 338.845 346.595 C 338.124 347.041, 337.963 346.869, 338.415 346.138 C 338.813 345.494, 339.525 345.206, 339.997 345.498 C 340.837 346.017, 342.590 342.235, 342.198 340.750 C 342.089 340.337, 342.477 340, 343.059 340 C 343.641 340, 343.840 339.550, 343.500 339 C 343.160 338.450, 343.286 338, 343.780 338 C 345.001 338, 347.167 333.079, 346.454 331.925 C 346.139 331.416, 346.341 331, 346.902 331 C 347.463 331, 348.615 328.668, 349.461 325.818 C 351.340 319.491, 351.341 318.965, 349.468 321.441 C 348.661 322.509, 348 322.988, 348 322.506 C 348 322.023, 348.925 320.645, 350.055 319.442 C 351.185 318.239, 352.242 316.185, 352.404 314.877 C 352.567 313.570, 353.257 310.505, 353.938 308.066 C 354.619 305.628, 355.002 302.140, 354.789 300.316 C 354.576 298.492, 354.825 297, 355.343 297 C 357.103 297, 355.332 271.149, 353.019 263.067 C 351.849 258.978, 350.591 255.153, 350.224 254.567 C 349.857 253.980, 349.461 252.870, 349.345 252.100 C 349.228 251.330, 348.541 250.325, 347.816 249.865 C 347.092 249.406, 346.893 249.024, 347.372 249.015 C 347.852 249.007, 347.689 248.330, 347.009 247.511 C 346.329 246.692, 345.262 246.328, 344.637 246.703 C 344.012 247.077, 344.093 246.653, 344.817 245.759 C 345.931 244.384, 345.816 243.816, 344.067 242.067 C 342.930 240.930, 342 239.639, 342 239.197 C 342 237.323, 335.740 230.039, 334.661 230.657 C 334.022 231.022, 333.818 230.968, 334.207 230.536 C 334.596 230.105, 333.172 227.921, 331.043 225.683 C 327.924 222.406, 326.894 221.843, 325.752 222.791 C 324.639 223.715, 324.333 223.658, 324.333 222.528 C 324.333 221.736, 324.708 221.320, 325.167 221.603 C 326.604 222.491, 326.073 220.306, 324.544 219.036 C 323.743 218.372, 322.548 218.161, 321.889 218.568 C 321.178 219.008, 320.952 218.886, 321.334 218.268 C 322.070 217.077, 319.646 214.687, 318.682 215.652 C 318.333 216.001, 317.767 215.555, 317.424 214.661 C 316.927 213.367, 316.389 213.257, 314.779 214.118 C 313.380 214.867, 312.961 214.873, 313.416 214.136 C 314.236 212.810, 310.279 208.710, 308.964 209.523 C 308.434 209.850, 308 209.725, 308 209.246 C 308 208.315, 301.603 205.509, 300.425 205.924 C 300.039 206.060, 299.408 205.661, 299.023 205.037 C 298.638 204.414, 295.998 203.291, 293.158 202.542 C 290.317 201.792, 288.227 201.558, 288.513 202.020 C 288.799 202.483, 288.506 203.187, 287.862 203.585 C 287.176 204.009, 286.958 203.878, 287.334 203.268 C 288.085 202.053, 286.166 200.297, 284 200.217 C 282.457 200.159, 279.113 199.463, 276.170 198.587 C 274.767 198.169, 266.064 197.283, 246 195.516 C 244.075 195.346, 241.825 194.981, 241 194.703 C 240.175 194.426, 235.450 193.616, 230.500 192.904 C 225.550 192.191, 221.275 191.547, 221 191.472 C 219.451 191.052, 214.648 189.926, 212.416 189.460 C 210.519 189.063, 210.007 189.263, 210.490 190.210 C 210.852 190.919, 210.552 190.791, 209.824 189.925 C 208.156 187.941, 202.141 185.812, 200.635 186.672 C 200.011 187.029, 199.826 186.960, 200.224 186.520 C 200.622 186.079, 199.047 184.480, 196.724 182.966 C 190 178.585, 187.092 175.366, 187.712 172.992 C 188.060 171.661, 187.578 170.356, 186.379 169.380 C 185.345 168.539, 185.082 168.149, 185.794 168.512 C 187.305 169.283, 190.231 167.183, 189.437 165.898 C 189.140 165.417, 189.549 165.273, 190.347 165.580 C 191.145 165.886, 192.053 165.723, 192.365 165.219 C 193.225 163.827, 208.989 167.196, 217.414 170.573 C 218.860 171.152, 219.128 171.016, 218.510 170.015 C 217.961 169.128, 218.077 168.930, 218.862 169.415 C 219.506 169.813, 219.803 170.510, 219.522 170.964 C 218.846 172.058, 221.885 173.189, 223.245 172.349 C 223.872 171.961, 224.016 172.165, 223.595 172.845 C 222.963 173.869, 224.794 174.506, 227.250 174.118 C 227.662 174.053, 228 174.477, 228 175.059 C 228 175.641, 228.450 175.840, 229 175.500 C 229.550 175.160, 230 175.286, 230 175.780 C 230 176.660, 233.630 178.680, 235.388 178.779 C 235.877 178.807, 236.552 179.205, 236.889 179.665 C 237.226 180.124, 239.018 181.298, 240.871 182.273 C 243.321 183.562, 244.593 183.753, 245.531 182.974 C 246.459 182.204, 247.031 182.241, 247.565 183.106 C 248.037 183.869, 247.886 184.048, 247.155 183.595 C 246.520 183.203, 246 183.328, 246 183.874 C 246 184.419, 247.012 185.187, 248.250 185.579 C 250.779 186.382, 251.611 186.204, 251.262 184.936 C 251.131 184.461, 251.783 184.363, 252.711 184.720 C 253.771 185.126, 253.953 185.516, 253.199 185.767 C 252.540 185.987, 252 186.654, 252 187.250 C 252 187.846, 252.279 188.055, 252.619 187.714 C 252.960 187.374, 253.924 187.781, 254.763 188.620 C 255.746 189.603, 257.213 189.931, 258.894 189.542 C 260.854 189.089, 261.128 189.191, 260 189.954 C 258.707 190.829, 258.742 190.989, 260.250 191.110 C 262.449 191.286, 262.863 191.404, 266.336 192.842 C 267.895 193.487, 270.595 194.125, 272.336 194.258 C 274.076 194.391, 275.751 194.836, 276.057 195.247 C 276.364 195.658, 279.289 196.178, 282.557 196.403 C 285.826 196.627, 289.307 197.134, 290.292 197.529 C 292.183 198.286, 301.643 197.344, 303.443 196.219 C 304.024 195.855, 305.311 195.432, 306.303 195.277 C 309.375 194.799, 314.096 191.965, 313.481 190.969 C 313.159 190.449, 313.594 190.291, 314.448 190.618 C 315.302 190.946, 316 190.716, 316 190.107 C 316 189.498, 316.344 189.113, 316.764 189.250 C 317.184 189.388, 320.838 186.238, 324.883 182.250 C 328.927 178.262, 331.958 174.944, 331.618 174.875 C 331.278 174.806, 330.587 174.694, 330.083 174.625 C 329.579 174.556, 328.904 174.162, 328.583 173.750 C 328.262 173.338, 328.301 173.226, 328.669 173.502 C 329.037 173.778, 330.266 173.216, 331.402 172.252 C 333.363 170.587, 333.398 170.587, 332.110 172.250 C 331.177 173.456, 331.114 174, 331.909 174 C 332.544 174, 333.361 173.213, 333.725 172.250 C 334.090 171.287, 335.011 169.870, 335.772 169.101 C 336.533 168.331, 336.946 166.903, 336.691 165.926 C 336.355 164.641, 336.655 164.314, 337.777 164.745 C 338.797 165.136, 339.081 164.939, 338.605 164.170 C 338.207 163.526, 338.246 162.999, 338.691 162.998 C 339.528 162.995, 344.873 152.649, 345.405 150 C 345.571 149.175, 346.474 146.764, 347.412 144.642 C 348.350 142.520, 348.870 140.536, 348.567 140.234 C 348.265 139.931, 348.449 139.164, 348.976 138.529 C 351.150 135.909, 353.033 114.244, 350.976 115.515 C 350.135 116.035, 349.981 115.635, 350.452 114.151 C 351.946 109.443, 342.448 97.553, 339.288 100.176 C 338.553 100.786, 337.663 100.996, 337.309 100.643 C 336.956 100.289, 337.218 100, 337.892 100 C 338.566 100, 338.840 99.550, 338.500 99 C 337.628 97.589, 332.663 97.756, 331.053 99.250 C 329.967 100.258, 329.856 100.237, 330.479 99.143 C 331.045 98.147, 330.751 97.935, 329.375 98.345 C 328.344 98.653, 326.262 99.200, 324.750 99.561 C 323.238 99.922, 322 100.666, 322 101.215 C 322 101.765, 322.675 101.955, 323.500 101.638 C 325.739 100.779, 325.310 101.763, 322.879 103.065 C 321.587 103.756, 321.007 103.797, 321.396 103.169 C 322.904 100.729, 319.774 101.134, 317.341 103.694 C 315.873 105.237, 315.045 105.861, 315.500 105.080 C 316.146 103.972, 315.908 103.837, 314.414 104.465 C 313.361 104.908, 311.033 105.805, 309.241 106.459 C 307.448 107.113, 306.175 107.840, 306.410 108.074 C 306.646 108.308, 303.582 108.403, 299.600 108.284 C 290.772 108.021, 279.586 106.032, 267.142 102.514 C 261.996 101.059, 257.213 100.088, 256.514 100.356 C 255.815 100.624, 254.725 100.325, 254.092 99.692 C 252.734 98.334, 225.932 97.362, 224.691 98.626 M 195.624 110.714 C 196.591 111.421, 197.859 111.964, 198.441 111.921 C 199.024 111.878, 198.935 111.614, 198.244 111.336 C 197.553 111.057, 197.182 110.514, 197.420 110.129 C 197.658 109.744, 196.956 109.429, 195.859 109.429 C 193.990 109.429, 193.975 109.509, 195.624 110.714 M 221 111.435 C 217.425 112.196, 213.309 113.281, 211.853 113.845 C 210.397 114.410, 208.934 114.601, 208.603 114.269 C 208.271 113.938, 208 114.192, 208 114.833 C 208 115.475, 207.579 116, 207.065 116 C 206.551 116, 204.863 116.523, 203.315 117.161 C 201.767 117.800, 200.206 118.265, 199.846 118.193 C 199.486 118.122, 198.644 118.725, 197.973 119.532 C 197.303 120.339, 196.190 121, 195.500 121 C 194.810 121, 193.676 121.686, 192.980 122.524 C 192.284 123.362, 191.506 123.839, 191.250 123.583 C 190.994 123.328, 188.990 124.779, 186.796 126.809 C 184.602 128.839, 182.498 130.500, 182.120 130.500 C 181.743 130.500, 179.124 133.050, 176.301 136.168 C 173.478 139.285, 170.906 141.572, 170.584 141.251 C 170.263 140.930, 169.944 141.192, 169.875 141.833 C 169.651 143.927, 169.481 144.482, 168.676 145.750 C 168.239 146.438, 167.432 147, 166.882 147 C 166.332 147, 166.203 146.480, 166.595 145.845 C 167.048 145.114, 166.869 144.963, 166.106 145.435 C 165.185 146.004, 165.177 146.509, 166.074 147.589 C 166.916 148.603, 166.929 149, 166.122 149 C 165.505 149, 165.079 149.338, 165.175 149.750 C 165.464 150.994, 162.745 156, 161.780 156 C 161.286 156, 161.138 156.414, 161.450 156.919 C 161.763 157.425, 161.452 158.438, 160.759 159.169 C 160.067 159.901, 159.475 160.950, 159.444 161.500 C 159.302 164.042, 157.705 167.936, 156.987 167.492 C 156.547 167.220, 156.440 167.968, 156.751 169.155 C 157.084 170.431, 156.916 171.066, 156.338 170.709 C 155.750 170.346, 155.542 171.335, 155.815 173.195 C 156.065 174.894, 155.871 176.038, 155.384 175.738 C 153.869 174.803, 153.807 201.838, 155.309 208.764 C 156.056 212.208, 156.536 216.254, 156.376 217.754 C 156.201 219.392, 156.399 219.972, 156.872 219.207 C 157.392 218.366, 158.138 219.385, 159.075 222.217 C 159.855 224.573, 160.382 226.838, 160.246 227.250 C 160.111 227.662, 160.525 228, 161.167 228 C 161.808 228, 162.060 228.273, 161.726 228.607 C 161.392 228.942, 162.221 230.404, 163.570 231.857 C 164.918 233.311, 165.807 235.057, 165.546 235.738 C 165.285 236.419, 165.403 236.869, 165.809 236.738 C 166.827 236.409, 174.078 244.549, 173.482 245.351 C 173.217 245.708, 173.296 245.779, 173.658 245.509 C 174.019 245.239, 175.762 246.476, 177.529 248.259 C 181.133 251.893, 181.375 252.061, 192.500 258.659 C 196.900 261.269, 200.775 263.802, 201.112 264.287 C 201.448 264.773, 202.026 265.097, 202.395 265.006 C 202.764 264.915, 206.374 266.218, 210.417 267.901 C 214.460 269.584, 219.058 271.493, 220.634 272.142 C 222.210 272.792, 223.838 273.250, 224.250 273.161 C 224.662 273.073, 225 273.477, 225 274.059 C 225 274.641, 225.409 274.865, 225.910 274.556 C 226.410 274.247, 227.573 274.283, 228.494 274.636 C 229.841 275.153, 229.907 275.459, 228.834 276.205 C 227.911 276.846, 228.167 276.944, 229.666 276.525 C 230.857 276.191, 232.086 276.331, 232.398 276.834 C 232.709 277.338, 234.040 277.750, 235.356 277.750 C 238.237 277.750, 266 286.884, 266.001 287.833 C 266.001 288.200, 267.133 288.565, 268.516 288.645 C 269.899 288.725, 272.262 289.617, 273.766 290.628 C 275.269 291.639, 278.219 293.254, 280.320 294.216 C 282.421 295.178, 283.876 296.392, 283.554 296.913 C 283.231 297.435, 283.494 298.187, 284.138 298.585 C 284.869 299.037, 285.041 298.876, 284.595 298.155 C 283.015 295.596, 285.995 297.253, 290.469 301.421 C 293.080 303.852, 294.948 306.276, 294.619 306.807 C 294.291 307.339, 294.805 308.387, 295.761 309.137 C 297.371 310.399, 297.389 310.352, 296 308.500 C 294.667 306.722, 294.667 306.630, 296 307.673 C 298.463 309.600, 301.312 315, 299.865 315 C 299.046 315, 299.161 315.429, 300.199 316.250 C 302.584 318.136, 304.125 324.140, 304.125 331.548 C 304.125 336.748, 303.732 338.509, 302.313 339.668 C 301.316 340.482, 301.139 340.816, 301.920 340.410 C 302.975 339.862, 303.168 340.121, 302.670 341.418 C 302.301 342.378, 302 343.559, 302 344.043 C 302 344.526, 300.988 345.906, 299.750 347.108 C 298.512 348.310, 298.107 348.949, 298.850 348.526 C 301.584 346.971, 298.209 351.531, 293.064 356.343 C 290.143 359.075, 287.489 360.802, 286.833 360.397 C 286.176 359.991, 285.963 360.131, 286.332 360.728 C 287.014 361.831, 277.211 366.544, 276.245 365.578 C 275.936 365.270, 275.039 365.553, 274.250 366.207 C 270.793 369.077, 246 366.048, 246 362.756 C 246 362.157, 245.719 361.947, 245.377 362.290 C 245.034 362.633, 243.202 361.730, 241.305 360.284 C 238.969 358.501, 238.011 357.065, 238.335 355.828 C 238.597 354.824, 238.335 353.707, 237.752 353.346 C 237.128 352.961, 236.985 353.167, 237.405 353.845 C 237.797 354.480, 237.653 355, 237.085 355 C 235.756 355, 232.745 349.222, 233.465 348.056 C 233.766 347.569, 233.527 347.009, 232.933 346.811 C 230.746 346.082, 230.212 333.105, 231.120 302.798 C 231.545 288.595, 231.660 288.867, 223.652 285.061 C 221.535 284.055, 220.387 283.038, 221.101 282.800 C 222.022 282.493, 221.909 282.179, 220.711 281.720 C 219.687 281.326, 219.118 281.527, 219.262 282.228 C 219.483 283.304, 213.596 284.750, 206.701 285.312 C 205.161 285.438, 203.536 286.132, 203.089 286.856 C 202.642 287.579, 201.877 288.209, 201.388 288.255 C 200.900 288.302, 198.143 289.418, 195.263 290.737 C 192.383 292.056, 189.501 292.810, 188.859 292.413 C 188.191 292, 187.958 292.123, 188.314 292.699 C 188.910 293.664, 184.309 296.537, 182.750 296.175 C 182.338 296.079, 182 296.450, 182 297 C 182 297.550, 181.523 298, 180.941 298 C 180.359 298, 180.203 297.480, 180.595 296.845 C 181.041 296.124, 180.869 295.963, 180.138 296.415 C 179.494 296.813, 179.229 297.561, 179.548 298.078 C 180.222 299.167, 175.940 301.027, 174.595 300.228 C 174.098 299.933, 173.982 300.161, 174.337 300.736 C 174.692 301.311, 173.895 302.494, 172.566 303.365 C 170.752 304.553, 170.026 304.643, 169.654 303.724 C 169.351 302.977, 169.127 303.136, 169.079 304.131 C 169.036 305.029, 167.313 307.024, 165.250 308.565 C 163.188 310.106, 159.718 313.197, 157.541 315.434 C 155.363 317.670, 154.238 318.600, 155.041 317.500 C 156.355 315.699, 156.341 315.624, 154.908 316.741 C 154.032 317.424, 152.922 317.649, 152.441 317.241 C 151.960 316.834, 152.197 317.322, 152.969 318.326 C 153.994 319.661, 154.063 320.343, 153.225 320.861 C 152.449 321.341, 152.235 324.146, 152.562 329.535 C 152.828 333.916, 153.063 338.288, 153.085 339.250 C 153.107 340.212, 153.498 341, 153.954 341 C 154.674 341, 155.217 342.370, 156.135 346.500 C 156.257 347.050, 156.956 348.099, 157.688 348.831 C 158.420 349.562, 158.792 350.528, 158.515 350.976 C 158.238 351.424, 158.684 352.048, 159.506 352.364 C 160.328 352.679, 161 353.578, 161 354.362 C 161 355.145, 161.696 356.053, 162.547 356.380 C 163.398 356.706, 163.960 357.625, 163.797 358.421 C 163.634 359.217, 163.884 359.851, 164.354 359.828 C 165.877 359.756, 173.932 368.301, 173.302 369.320 C 172.956 369.880, 173.201 369.994, 173.866 369.583 C 175.249 368.728, 181.218 373.412, 180.195 374.549 C 179.813 374.973, 180.124 374.959, 180.887 374.517 C 181.805 373.985, 182.934 374.523, 184.224 376.106 C 185.296 377.423, 185.886 377.943, 185.535 377.261 C 185.114 376.445, 185.423 376.225, 186.442 376.616 C 187.293 376.943, 187.697 377.682, 187.340 378.259 C 186.981 378.841, 187.166 379.015, 187.755 378.651 C 189.297 377.698, 192.196 379.046, 191.653 380.462 C 191.399 381.125, 191.803 381.667, 192.551 381.667 C 193.300 381.667, 193.683 381.297, 193.404 380.845 C 193.125 380.393, 193.594 380.291, 194.448 380.618 C 195.302 380.946, 196 381.616, 196 382.107 C 196 382.598, 196.338 382.947, 196.750 382.882 C 199.206 382.494, 201.037 383.131, 200.405 384.155 C 199.974 384.851, 200.129 385.038, 200.794 384.627 C 201.401 384.252, 205.408 384.922, 209.699 386.116 C 219.586 388.866, 244.920 389.851, 257.311 387.967 C 261.815 387.283, 266.400 386.597, 267.500 386.445 C 268.600 386.292, 269.725 386.061, 270 385.931 C 270.275 385.801, 270.950 385.619, 271.500 385.527 C 272.050 385.434, 274.285 384.585, 276.466 383.640 C 278.647 382.695, 281.122 381.799, 281.966 381.650 C 282.810 381.501, 285.863 380.161, 288.750 378.673 C 291.637 377.184, 294 376.285, 294 376.674 C 294 377.064, 294.708 376.509, 295.574 375.441 C 296.440 374.374, 296.910 373.988, 296.618 374.583 C 296.327 375.179, 296.681 375.667, 297.405 375.667 C 298.130 375.667, 298.672 375.011, 298.611 374.209 C 298.550 373.407, 300.188 371.862, 302.250 370.777 C 304.313 369.692, 306 368.398, 306 367.902 C 306 367.406, 306.511 367, 307.135 367 C 307.759 367, 311.021 364.191, 314.385 360.757 C 317.748 357.323, 320.794 354.609, 321.154 354.725 C 321.514 354.841, 322.414 354.163, 323.154 353.218 C 324.368 351.668, 324.329 351.634, 322.750 352.872 C 320.089 354.959, 320.647 353.351, 324.250 348.547 C 326.038 346.164, 327.997 343.382, 328.605 342.364 C 329.527 340.819, 329.966 340.727, 331.266 341.805 C 332.384 342.733, 333.016 342.783, 333.511 341.982 C 333.890 341.369, 333.930 340.597, 333.600 340.267 C 333.270 339.937, 333 340.247, 333 340.956 C 333 341.965, 332.687 341.985, 331.559 341.049 C 329.960 339.722, 330.597 336.633, 332.259 337.660 C 332.837 338.017, 333.020 337.841, 332.666 337.268 C 332.312 336.696, 333.356 333.285, 334.987 329.690 C 337.991 323.063, 341.814 310.977, 342.639 305.500 C 343.408 300.387, 343.667 271.088, 342.938 271.538 C 342.374 271.887, 341.406 268.197, 340.568 262.500 C 340.487 261.950, 339.201 258.857, 337.711 255.626 C 336.220 252.395, 335 249.106, 335 248.317 C 335 247.528, 334.550 247.160, 334 247.500 C 333.101 248.056, 332.567 246.743, 332.882 244.750 C 332.947 244.337, 332.530 244, 331.956 244 C 331.382 244, 331.045 243.223, 331.206 242.272 C 331.368 241.322, 330.974 240.535, 330.331 240.522 C 329.689 240.510, 326.298 237.673, 322.797 234.217 C 319.296 230.761, 314.532 226.676, 312.210 225.139 C 309.888 223.602, 308.329 221.970, 308.744 221.512 C 309.160 221.054, 308.969 220.983, 308.320 221.355 C 307.672 221.727, 304.859 220.686, 302.070 219.041 C 299.282 217.397, 297 216.209, 297 216.402 C 297 216.594, 294.055 215.683, 290.455 214.376 C 286.854 213.069, 283.003 212, 281.895 212 C 280.628 212, 280.146 211.572, 280.595 210.845 C 281.017 210.163, 280.872 209.961, 280.239 210.352 C 279.184 211.004, 261.509 209.265, 241 206.491 C 235.225 205.709, 228.700 204.837, 226.500 204.553 C 219.814 203.688, 208 200.684, 208 199.849 C 208 199.416, 207.325 199.322, 206.500 199.638 C 205.675 199.955, 205 199.689, 205 199.048 C 205 198.407, 204.602 198.128, 204.115 198.429 C 202.904 199.177, 196.884 196.997, 197.483 196.028 C 197.747 195.600, 196.820 195.250, 195.422 195.250 C 192.392 195.250, 183.222 189.161, 180.386 185.266 C 177.024 180.650, 176.511 179.585, 178.095 180.517 C 178.925 181.005, 178.783 180.524, 177.750 179.343 C 175.805 177.119, 175.260 167.575, 177.016 166.490 C 177.575 166.144, 177.762 165.423, 177.430 164.887 C 176.607 163.555, 178.975 160.866, 180.268 161.666 C 180.896 162.054, 181.007 161.820, 180.548 161.078 C 179.762 159.807, 181.817 157.521, 185.787 155.250 C 188.587 153.649, 192.375 153.584, 191.405 155.155 C 190.959 155.876, 191.131 156.037, 191.862 155.585 C 192.506 155.187, 192.774 154.443, 192.457 153.931 C 191.783 152.840, 193.956 152.758, 200.337 153.633 C 202.947 153.990, 204.692 154.689, 204.352 155.240 C 203.992 155.822, 204.571 155.953, 205.789 155.567 C 208.101 154.833, 224 159.743, 224 161.192 C 224 161.701, 224.450 161.840, 225 161.500 C 225.550 161.160, 226 161.385, 226 162 C 226 162.615, 226.450 162.840, 227 162.500 C 227.550 162.160, 228 162.359, 228 162.941 C 228 163.523, 228.338 163.911, 228.750 163.802 C 230.157 163.430, 234 165.132, 234 166.126 C 234 166.672, 234.450 166.840, 235 166.500 C 235.550 166.160, 236 166.385, 236 167 C 236 167.615, 236.414 167.862, 236.919 167.550 C 237.425 167.237, 238.534 167.677, 239.384 168.527 C 240.233 169.376, 241.170 170.055, 241.464 170.036 C 243.597 169.894, 244.028 170.146, 243.395 171.170 C 242.911 171.952, 243.213 172.132, 244.307 171.712 C 245.206 171.367, 246.614 171.757, 247.435 172.578 C 248.257 173.399, 249.282 174.038, 249.714 173.997 C 250.146 173.955, 252.204 174.690, 254.287 175.629 C 257.063 176.881, 257.730 177.584, 256.787 178.263 C 255.887 178.910, 256.065 179.005, 257.377 178.577 C 258.409 178.241, 259.759 178.357, 260.377 178.836 C 261.427 179.650, 264.774 180.669, 274.500 183.135 C 277.936 184.006, 290.470 185.925, 293.500 186.043 C 294.050 186.065, 296.525 185.595, 299 185 C 301.475 184.404, 304.491 183.807, 305.702 183.673 C 306.913 183.539, 308.263 183.035, 308.702 182.554 C 309.147 182.066, 308.837 181.992, 308 182.386 C 307.175 182.775, 307.825 182.059, 309.444 180.796 C 311.063 179.533, 314.384 176.372, 316.823 173.771 C 319.263 171.170, 321.720 169.327, 322.284 169.676 C 322.860 170.032, 323.007 169.820, 322.619 169.193 C 321.978 168.156, 328.569 156.913, 330.256 156.165 C 330.672 155.980, 330.758 155.418, 330.447 154.915 C 330.136 154.412, 330.385 154, 331 154 C 331.615 154, 331.840 153.550, 331.500 153 C 331.160 152.450, 331.385 152, 332 152 C 332.615 152, 332.862 151.586, 332.550 151.081 C 332.237 150.575, 332.693 149.450, 333.562 148.581 C 334.432 147.711, 334.934 147, 334.678 147 C 334.422 147, 335.287 143.615, 336.601 139.477 C 337.915 135.340, 339.281 128.827, 339.636 125.005 C 340.070 120.337, 340.646 118.268, 341.391 118.700 C 342.001 119.054, 341.800 118.479, 340.943 117.422 C 340.087 116.365, 338.844 114.229, 338.181 112.675 C 337.070 110.073, 336.602 109.873, 332.237 110.136 C 329.077 110.327, 326.137 111.339, 323.406 113.176 C 319.585 115.747, 315.536 117.659, 312 118.560 C 304.172 120.555, 301.898 120.740, 294.164 120.011 C 283.242 118.981, 278.132 118.022, 277.420 116.870 C 277.113 116.374, 276.503 116.189, 276.063 116.461 C 275.624 116.732, 270.143 115.593, 263.883 113.929 C 250.053 110.254, 231.597 109.181, 221 111.435 M 238.808 178.208 C 239.446 178.846, 240.892 179.437, 242.020 179.520 C 243.163 179.604, 243.691 179.291, 243.212 178.812 C 242.740 178.340, 241.294 177.749, 240 177.500 C 238.214 177.156, 237.926 177.326, 238.808 178.208 M 188.708 178.625 C 188.395 178.939, 188.410 179.905, 188.743 180.771 C 189.192 181.943, 188.912 182.180, 187.650 181.696 C 186.222 181.148, 186.121 181.357, 187.012 183.023 C 188.042 184.946, 189.214 185.757, 188.788 184.250 C 188.671 183.838, 189.122 182.515, 189.790 181.311 C 190.896 179.318, 190.069 177.264, 188.708 178.625 M 160.666 232.427 C 159.957 234.277, 162.522 236.582, 163.511 234.982 C 163.890 234.369, 163.930 233.597, 163.600 233.267 C 163.270 232.937, 163 233.218, 163 233.892 C 163 234.566, 162.570 234.852, 162.044 234.527 C 161.518 234.202, 161.341 233.275, 161.651 232.468 C 161.960 231.661, 161.989 231, 161.714 231 C 161.439 231, 160.968 231.642, 160.666 232.427 M 243.989 294.487 C 244.684 295.324, 244.907 296.746, 244.500 297.737 C 243.786 299.475, 243.637 301.343, 243.214 313.809 C 243.096 317.279, 242.659 319.907, 242.242 319.649 C 241.500 319.191, 242.461 338.322, 243.402 342.729 C 243.663 343.955, 243.447 345.224, 242.922 345.548 C 241.470 346.445, 242.862 348, 245.118 348 C 246.218 348, 246.838 348.453, 246.496 349.007 C 246.153 349.561, 246.603 350.294, 247.494 350.636 C 248.386 350.978, 248.878 351.875, 248.589 352.629 C 248.300 353.383, 248.499 354, 249.031 354 C 249.564 354, 250 353.573, 250 353.051 C 250 352.529, 251.563 352.755, 253.473 353.553 C 257.068 355.055, 273.167 356.076, 272.346 354.750 C 272.091 354.337, 272.696 353.995, 273.691 353.988 C 274.686 353.981, 277.372 352.906, 279.659 351.597 C 282.239 350.122, 284.233 349.557, 284.909 350.109 C 285.657 350.720, 285.696 350.633, 285.033 349.833 C 283.886 348.449, 290.811 340.765, 292.348 341.715 C 292.908 342.061, 292.979 341.775, 292.517 341.028 C 292.082 340.323, 291.737 335.528, 291.751 330.373 C 291.765 325.123, 291.359 321, 290.829 321 C 290.308 321, 290.123 320.610, 290.417 320.134 C 290.712 319.657, 290.074 318.472, 289 317.500 C 287.926 316.528, 287.288 315.343, 287.583 314.866 C 287.877 314.390, 287.615 314, 287 314 C 286.385 314, 286.167 313.539, 286.515 312.975 C 286.864 312.412, 286.778 312.062, 286.324 312.199 C 285.015 312.593, 276.989 306.344, 277.784 305.550 C 278.178 305.156, 277.992 304.983, 277.372 305.167 C 276.392 305.456, 265.375 300.375, 264 299 C 263.725 298.725, 262.825 298.348, 262 298.162 C 261.175 297.977, 257.180 296.739, 253.122 295.412 C 244.320 292.534, 242.189 292.318, 243.989 294.487 M 200.905 393.750 C 200.169 394.712, 199.960 395.166, 200.441 394.759 C 200.922 394.351, 201.939 394.534, 202.700 395.166 C 203.679 395.979, 204.397 396.003, 205.149 395.251 C 205.901 394.499, 205.669 394.233, 204.357 394.343 C 203.335 394.430, 202.613 393.938, 202.750 393.250 C 203.096 391.521, 202.485 391.687, 200.905 393.750" stroke="none" fill="#fdfdfb" fill-rule="evenodd"/><path d="M 293.250 107.689 C 294.212 107.941, 295.788 107.941, 296.750 107.689 C 297.712 107.438, 296.925 107.232, 295 107.232 C 293.075 107.232, 292.288 107.438, 293.250 107.689 M 226.539 111.054 C 188.980 116.894, 160.065 145.632, 154.983 182.170 C 153.754 191.004, 155.015 207.447, 157.577 216 C 161.480 229.027, 169.953 241.643, 180.230 249.729 C 194.696 261.112, 208.750 267.642, 243.452 279.104 C 270.252 287.956, 280.764 292.693, 289.236 299.733 C 300.158 308.810, 304.290 317.324, 304.420 331.018 C 304.492 338.693, 304.179 340.189, 301.250 346.140 C 293.302 362.293, 274.846 370.788, 255.828 367.046 C 239.981 363.928, 232.257 354.869, 230.027 336.786 C 229.001 328.464, 229.224 323.442, 231.593 301.438 C 232.088 296.836, 231.860 294.629, 230.643 292.276 C 228.574 288.276, 224.634 285.210, 220.586 284.450 C 210.014 282.467, 173.095 300.556, 159.748 314.259 C 153.015 321.171, 152.208 323.371, 153.155 332.234 C 155.106 350.490, 171.258 369.305, 194.127 379.959 C 215.547 389.938, 246.521 391.711, 271.747 384.400 C 314.759 371.936, 342.974 333.746, 342.967 288 C 342.964 265.137, 336.629 248.673, 322.338 234.382 C 307.711 219.755, 289.859 212.473, 261.491 209.565 C 216.045 204.905, 194.965 199.304, 183.529 188.852 C 174.370 180.481, 172.447 169.967, 178.424 160.936 C 182.463 154.833, 188.228 152.579, 197.938 153.307 C 209.875 154.203, 215.994 156.332, 240 167.941 C 268.642 181.793, 278.699 185, 293.487 185 C 301.074 185, 307.631 181.974, 314.664 175.226 C 328.012 162.420, 339 138.264, 339 121.725 C 339 115.822, 338.671 114.580, 336.545 112.455 C 335.195 111.105, 333.434 110, 332.630 110 C 331.827 110, 327.868 111.750, 323.832 113.888 C 306.374 123.138, 298.426 123.214, 262.772 114.473 C 247.656 110.768, 235.660 109.635, 226.539 111.054 M 352.310 121.500 C 352.315 124.800, 352.502 126.029, 352.725 124.232 C 352.947 122.435, 352.943 119.735, 352.715 118.232 C 352.486 116.729, 352.304 118.200, 352.310 121.500 M 168.971 125.750 L 162.500 132.500 169.250 126.029 C 175.520 120.018, 176.457 119, 175.721 119 C 175.568 119, 172.530 122.037, 168.971 125.750 M 324.437 184.250 L 321.500 187.500 324.750 184.563 C 327.779 181.825, 328.460 181, 327.687 181 C 327.515 181, 326.052 182.463, 324.437 184.250 M 141.370 193 C 141.370 198.775, 141.535 201.137, 141.737 198.250 C 141.939 195.363, 141.939 190.637, 141.737 187.750 C 141.535 184.863, 141.370 187.225, 141.370 193 M 261.762 196.707 C 263.006 196.946, 264.806 196.937, 265.762 196.687 C 266.718 196.437, 265.700 196.241, 263.500 196.252 C 261.300 196.263, 260.518 196.468, 261.762 196.707 M 329 222.313 C 329 222.485, 330.462 223.948, 332.250 225.563 L 335.500 228.500 332.563 225.250 C 329.825 222.221, 329 221.540, 329 222.313 M 356.360 287 C 356.360 292.225, 356.529 294.363, 356.735 291.750 C 356.941 289.137, 356.941 284.863, 356.735 282.250 C 356.529 279.637, 356.360 281.775, 356.360 287 M 243.232 315 C 243.232 316.925, 243.438 317.712, 243.689 316.750 C 243.941 315.788, 243.941 314.212, 243.689 313.250 C 243.438 312.288, 243.232 313.075, 243.232 315 M 139.300 328 C 139.300 331.025, 139.487 332.262, 139.716 330.750 C 139.945 329.238, 139.945 326.762, 139.716 325.250 C 139.487 323.738, 139.300 324.975, 139.300 328 M 259.250 354.689 C 260.212 354.941, 261.788 354.941, 262.750 354.689 C 263.712 354.438, 262.925 354.232, 261 354.232 C 259.075 354.232, 258.288 354.438, 259.250 354.689 M 159.500 372 C 162.766 375.300, 165.662 378, 165.937 378 C 166.212 378, 163.766 375.300, 160.500 372 C 157.234 368.700, 154.338 366, 154.063 366 C 153.788 366, 156.234 368.700, 159.500 372" stroke="none" fill="#4f5565" fill-rule="evenodd"/><path d="M 234.250 97.728 C 236.313 97.944, 239.688 97.944, 241.750 97.728 C 243.813 97.513, 242.125 97.336, 238 97.336 C 233.875 97.336, 232.188 97.513, 234.250 97.728 M 327.500 98.086 C 325.874 98.854, 326.030 98.927, 328.334 98.475 C 330.476 98.055, 330.978 98.235, 330.392 99.210 C 329.790 100.211, 329.939 100.244, 331.058 99.358 C 331.851 98.729, 333.400 97.994, 334.500 97.724 C 335.668 97.437, 335.043 97.213, 333 97.186 C 331.075 97.161, 328.600 97.566, 327.500 98.086 M 341.386 99.815 C 341.730 100.373, 341.447 101.088, 340.756 101.405 C 340.065 101.722, 340.524 101.727, 341.775 101.415 C 343.315 101.032, 343.961 101.263, 343.775 102.129 C 343.624 102.833, 344.175 103.450, 345 103.500 C 345.825 103.550, 346.376 104.166, 346.225 104.870 C 346.074 105.573, 346.441 105.846, 347.040 105.475 C 347.768 105.025, 347.531 104.140, 346.326 102.808 C 344.274 100.541, 340.374 98.178, 341.386 99.815 M 321.251 101.687 C 321.383 103.441, 321.753 103.668, 323.207 102.889 C 324.193 102.361, 325 101.694, 325 101.406 C 325 101.118, 324.500 101.191, 323.888 101.569 C 323.277 101.947, 322.397 101.642, 321.932 100.891 C 321.326 99.910, 321.134 100.134, 321.251 101.687 M 316.500 102.765 C 315.950 103.169, 315.381 104.175, 315.236 105 C 315.031 106.159, 315.281 106.106, 316.334 104.766 C 317.084 103.812, 318.063 103.362, 318.509 103.766 C 318.955 104.169, 318.997 103.938, 318.601 103.250 C 317.766 101.798, 317.804 101.807, 316.500 102.765 M 276 104.954 C 276.825 105.513, 278.363 105.976, 279.417 105.985 C 281.975 106.005, 281.177 105.433, 277.500 104.610 C 275.309 104.120, 274.905 104.213, 276 104.954 M 348.094 106.676 C 348.445 108.697, 347.887 109.373, 347 108 C 346.418 107.099, 346.025 106.975, 346.015 107.691 C 345.991 109.593, 347.670 110.103, 348.935 108.578 C 349.751 107.595, 349.778 106.981, 349.024 106.515 C 348.433 106.150, 348.015 106.222, 348.094 106.676 M 195.314 110.250 C 196.363 111.213, 197.734 111.964, 198.361 111.921 C 199.091 111.870, 199.049 111.660, 198.244 111.336 C 197.553 111.057, 197.285 110.348, 197.648 109.760 C 198.047 109.114, 197.835 108.984, 197.111 109.432 C 196.452 109.839, 195.348 109.796, 194.659 109.336 C 193.970 108.876, 194.264 109.287, 195.314 110.250 M 336.286 112.250 C 337.504 113.487, 338.651 114.160, 338.835 113.744 C 339.020 113.328, 339.551 113.223, 340.016 113.510 C 340.481 113.797, 341.187 113.506, 341.585 112.862 C 342.037 112.131, 341.876 111.959, 341.155 112.405 C 340.508 112.804, 339.993 112.542, 339.985 111.809 C 339.972 110.749, 339.808 110.754, 339.124 111.834 C 338.443 112.908, 338.160 112.859, 337.671 111.584 C 337.336 110.713, 336.390 110, 335.567 110 C 334.453 110, 334.636 110.573, 336.286 112.250 M 184.675 113.250 C 183.153 114.364, 183.268 114.513, 185.734 114.623 C 187.255 114.691, 187.935 114.540, 187.244 114.288 C 186.553 114.036, 186.242 113.418, 186.553 112.915 C 187.330 111.656, 186.697 111.769, 184.675 113.250 M 179.856 116.809 C 179.147 117.739, 178.960 118.166, 179.441 117.759 C 179.922 117.351, 181.006 117.576, 181.850 118.259 C 182.881 119.093, 183.155 119.118, 182.686 118.335 C 182.302 117.695, 182.530 116.990, 183.193 116.769 C 183.974 116.509, 183.825 116.147, 182.773 115.743 C 181.819 115.377, 180.613 115.818, 179.856 116.809 M 339.180 121.750 C 339.360 127.473, 339.362 127.478, 339.736 122.725 C 340.001 119.360, 340.464 118.162, 341.306 118.667 C 342.013 119.091, 341.940 118.693, 341.128 117.692 C 340.373 116.761, 339.585 116, 339.378 116 C 339.170 116, 339.081 118.588, 339.180 121.750 M 175.028 120.471 C 173.230 122.384, 172.963 123.251, 173.845 124.313 C 174.471 125.067, 174.762 125.980, 174.491 126.342 C 174.221 126.704, 174.313 126.762, 174.696 126.471 C 175.752 125.668, 175.957 122.908, 174.912 123.554 C 173.222 124.599, 173.982 122.648, 176.174 120.314 C 177.370 119.042, 178.124 118, 177.849 118 C 177.574 118, 176.304 119.112, 175.028 120.471 M 293.264 120.718 C 294.784 120.947, 297.034 120.941, 298.264 120.704 C 299.494 120.467, 298.250 120.279, 295.500 120.286 C 292.750 120.294, 291.744 120.488, 293.264 120.718 M 187.500 126.174 L 184.500 129.233 187.750 126.929 C 189.537 125.661, 191 124.259, 191 123.812 C 191 122.659, 190.840 122.767, 187.500 126.174 M 164.924 130.750 C 163.591 132.262, 162.909 133.166, 163.408 132.759 C 163.907 132.351, 164.884 132.489, 165.578 133.064 C 166.523 133.849, 166.766 133.659, 166.548 132.306 C 166.388 131.313, 166.704 129.938, 167.251 129.250 C 169.168 126.839, 167.324 128.028, 164.924 130.750 M 176.351 136.041 C 173.520 139.247, 170.988 141.654, 170.725 141.392 C 170.462 141.129, 169.966 141.646, 169.623 142.540 C 169.280 143.435, 169.381 144.017, 169.849 143.834 C 171.130 143.331, 182.331 130.994, 181.886 130.575 C 181.674 130.375, 179.183 132.835, 176.351 136.041 M 180.866 157.744 C 180.066 158.710, 178.756 160.400, 177.955 161.500 C 176.646 163.300, 176.659 163.376, 178.092 162.259 C 178.968 161.576, 180.004 161.337, 180.395 161.728 C 180.786 162.119, 180.780 161.591, 180.383 160.555 C 179.841 159.144, 179.992 158.877, 180.985 159.490 C 181.828 160.012, 182.069 159.921, 181.648 159.240 C 181.285 158.652, 181.553 157.969, 182.244 157.722 C 182.935 157.476, 183.235 156.984, 182.911 156.631 C 182.586 156.277, 181.666 156.778, 180.866 157.744 M 175.474 167.289 C 175.128 169.129, 175.034 172.179, 175.263 174.067 C 175.589 176.753, 175.715 176.401, 175.840 172.450 C 175.928 169.673, 176.489 166.911, 177.087 166.313 C 177.830 165.570, 177.846 165.023, 177.138 164.585 C 176.536 164.213, 175.838 165.347, 175.474 167.289 M 192.397 165.167 C 192.114 165.625, 193.484 166, 195.441 166 C 197.398 166, 199 165.826, 199 165.613 C 199 164.792, 192.884 164.379, 192.397 165.167 M 319.630 169.857 C 318.054 171.598, 318.060 171.800, 319.725 173.107 C 321.308 174.349, 321.363 174.325, 320.238 172.883 C 319.215 171.573, 319.233 171.052, 320.330 170.141 C 321.075 169.523, 322.052 169.351, 322.502 169.759 C 322.952 170.166, 322.997 169.938, 322.601 169.250 C 321.677 167.644, 321.622 167.655, 319.630 169.857 M 331.009 172.489 C 330.329 173.308, 329.262 173.686, 328.637 173.329 C 328.012 172.972, 327.849 173.063, 328.276 173.532 C 328.702 174.001, 330.052 174.495, 331.276 174.629 C 332.499 174.763, 332.919 174.633, 332.208 174.339 C 331.216 173.929, 331.187 173.480, 332.081 172.403 C 332.721 171.631, 333.020 171, 332.745 171 C 332.470 171, 331.689 171.670, 331.009 172.489 M 311.405 178.155 L 309.500 180.310 312.250 178.540 C 315.086 176.715, 315.622 176, 314.155 176 C 313.690 176, 312.453 176.970, 311.405 178.155 M 238.808 178.208 C 239.446 178.846, 240.892 179.437, 242.020 179.520 C 243.163 179.604, 243.691 179.291, 243.212 178.812 C 242.740 178.340, 241.294 177.749, 240 177.500 C 238.214 177.156, 237.926 177.326, 238.808 178.208 M 257 178.110 C 255.762 179, 255.828 179.082, 257.377 178.577 C 258.409 178.241, 259.759 178.371, 260.377 178.867 C 260.995 179.363, 263.075 180.056, 265 180.407 C 267.935 180.941, 267.693 180.718, 263.500 179.023 C 260.750 177.911, 258.500 177.008, 258.500 177.016 C 258.500 177.024, 257.825 177.516, 257 178.110 M 188.708 178.625 C 188.395 178.939, 188.410 179.905, 188.743 180.771 C 189.192 181.943, 188.912 182.180, 187.650 181.696 C 186.222 181.148, 186.121 181.357, 187.012 183.023 C 188.042 184.946, 189.214 185.757, 188.788 184.250 C 188.671 183.838, 189.122 182.515, 189.790 181.311 C 190.896 179.318, 190.069 177.264, 188.708 178.625 M 325.085 181.625 C 319.058 187.627, 318.361 189.701, 324.285 184.006 C 327.428 180.985, 330 178.397, 330 178.256 C 330 177.344, 328.025 178.697, 325.085 181.625 M 306.750 181.392 C 304.547 183.064, 304.516 183.894, 306.667 183.578 C 307.584 183.444, 308.444 182.584, 308.578 181.667 C 308.867 179.700, 308.961 179.714, 306.750 181.392 M 239.987 182.448 C 242.626 183.908, 244.010 183.646, 243.985 181.691 C 243.973 180.775, 243.794 180.776, 243.208 181.697 C 242.706 182.487, 241.945 182.577, 240.974 181.963 C 240.163 181.450, 239.050 181.040, 238.500 181.051 C 237.950 181.062, 238.619 181.690, 239.987 182.448 M 291 185.393 C 291 186.364, 293.817 186.729, 295.091 185.923 C 296.116 185.273, 295.751 185.026, 293.750 185.015 C 292.238 185.007, 291 185.177, 291 185.393 M 185.057 190.569 C 185.701 191.344, 186.656 191.713, 187.180 191.389 C 188.344 190.669, 187.480 189.688, 185.415 189.385 C 184.211 189.208, 184.135 189.458, 185.057 190.569 M 154.286 199.500 C 154.294 202.250, 154.488 203.256, 154.718 201.736 C 154.947 200.216, 154.941 197.966, 154.704 196.736 C 154.467 195.506, 154.279 196.750, 154.286 199.500 M 194.444 196.229 C 195.584 196.867, 196.533 196.867, 197.171 196.229 C 197.810 195.590, 197.201 195.250, 195.423 195.250 C 193.120 195.250, 192.967 195.402, 194.444 196.229 M 286.790 201.092 C 287.446 201.968, 287.649 203.078, 287.241 203.559 C 286.834 204.040, 287.400 203.789, 288.500 203 C 291.467 200.872, 291.664 200.623, 289.872 201.263 C 288.976 201.582, 287.648 201.316, 286.920 200.672 C 285.841 199.716, 285.816 199.794, 286.790 201.092 M 252.762 208.707 C 254.006 208.946, 255.806 208.937, 256.762 208.687 C 257.718 208.437, 256.700 208.241, 254.500 208.252 C 252.300 208.263, 251.518 208.468, 252.762 208.707 M 262.250 209.689 C 263.212 209.941, 264.788 209.941, 265.750 209.689 C 266.712 209.438, 265.925 209.232, 264 209.232 C 262.075 209.232, 261.288 209.438, 262.250 209.689 M 312.910 211.619 C 313.471 212.784, 313.622 214.045, 313.245 214.421 C 312.869 214.798, 313.335 214.809, 314.280 214.446 C 315.226 214.083, 316 213.309, 316 212.726 C 316 212.144, 315.707 211.960, 315.349 212.318 C 314.991 212.676, 314.066 212.188, 313.294 211.234 C 312.018 209.659, 311.983 209.694, 312.910 211.619 M 300 218.449 C 300 218.724, 301.350 219.647, 303 220.500 C 304.650 221.353, 306 221.826, 306 221.551 C 306 221.276, 304.650 220.353, 303 219.500 C 301.350 218.647, 300 218.174, 300 218.449 M 325.701 220.664 C 326.082 221.656, 325.934 222.078, 325.337 221.708 C 324.785 221.367, 324.333 221.758, 324.333 222.577 C 324.333 223.602, 324.656 223.744, 325.367 223.033 C 326.770 221.630, 328.291 221.721, 327.405 223.155 C 326.990 223.825, 327.128 224.039, 327.732 223.666 C 328.305 223.312, 329.293 223.648, 329.928 224.414 C 330.564 225.179, 330.727 226.001, 330.292 226.239 C 329.856 226.477, 329.996 226.560, 330.603 226.424 C 331.845 226.144, 335.064 229.512, 334.418 230.415 C 334.188 230.737, 334.296 230.779, 334.658 230.509 C 335.020 230.238, 336.032 230.550, 336.908 231.202 C 337.784 231.853, 335.588 229.374, 332.029 225.693 C 328.470 222.012, 325.446 219, 325.310 219 C 325.174 219, 325.350 219.749, 325.701 220.664 M 310.074 222.411 C 309.273 223.376, 309.235 224.027, 309.951 224.470 C 310.528 224.826, 311.034 224.979, 311.077 224.809 C 311.525 222.996, 311.765 221, 311.534 221 C 311.375 221, 310.718 221.635, 310.074 222.411 M 160.282 225.750 C 160.361 226.988, 160.855 228, 161.379 228 C 161.904 228, 162.055 228.279, 161.714 228.619 C 161.374 228.960, 161.730 229.873, 162.505 230.648 C 163.955 232.098, 163.464 235.405, 161.939 234.462 C 161.471 234.173, 161.341 233.275, 161.651 232.468 C 161.960 231.661, 161.989 231, 161.714 231 C 160.435 231, 160.268 233.978, 161.490 234.991 C 162.549 235.871, 163.080 235.717, 163.830 234.315 C 164.545 232.976, 164.188 231.320, 162.469 228 C 160.861 224.895, 160.183 224.198, 160.282 225.750 M 151.415 234.138 C 150.930 234.923, 151.128 235.039, 152.015 234.490 C 152.972 233.899, 153.166 234.125, 152.714 235.304 C 152.369 236.202, 152.424 237.144, 152.836 237.399 C 153.248 237.653, 153.650 237.001, 153.729 235.950 C 153.902 233.655, 152.427 232.500, 151.415 234.138 M 327.992 240.750 C 329.831 243.088, 331.822 244.993, 332.417 244.985 C 333.023 244.976, 332.926 244.605, 332.197 244.143 C 331.481 243.689, 331.031 242.908, 331.197 242.408 C 331.364 241.909, 331.199 241.500, 330.831 241.500 C 330.462 241.500, 328.921 240.375, 327.405 239 C 325.011 236.827, 325.088 237.057, 327.992 240.750 M 339.872 238.750 C 338.629 240.336, 338.664 240.371, 340.250 239.128 C 341.751 237.951, 342 237.971, 342 239.271 C 342 240.104, 342.676 241.046, 343.503 241.363 C 344.784 241.854, 344.767 241.573, 343.388 239.470 C 341.460 236.527, 341.594 236.554, 339.872 238.750 M 165.500 254 C 167.648 256.200, 169.592 258, 169.819 258 C 170.661 258, 163.464 250.166, 162.547 250.085 C 162.023 250.038, 163.352 251.800, 165.500 254 M 172 259.432 C 172 259.669, 173.275 260.772, 174.833 261.881 C 176.977 263.408, 177.667 263.557, 177.667 262.493 C 177.667 261.720, 177.328 261.297, 176.914 261.553 C 176.500 261.809, 175.482 261.339, 174.652 260.509 C 173.182 259.040, 172 258.559, 172 259.432 M 207 266.500 C 208.375 267.286, 209.950 267.929, 210.500 267.929 C 211.050 267.929, 210.375 267.286, 209 266.500 C 207.625 265.714, 206.050 265.071, 205.500 265.071 C 204.950 265.071, 205.625 265.714, 207 266.500 M 229 276.117 C 227.765 276.999, 227.832 277.081, 229.377 276.577 C 230.409 276.241, 231.882 276.487, 232.651 277.125 C 233.419 277.763, 234.337 277.996, 234.691 277.643 C 236.223 276.111, 230.977 274.705, 229 276.117 M 195.653 276.867 C 193.857 277.574, 193.857 277.633, 195.653 279.014 C 196.669 279.795, 197.166 280.040, 196.759 279.559 C 196.351 279.078, 196.519 278.080, 197.131 277.342 C 198.367 275.852, 198.293 275.829, 195.653 276.867 M 343.349 288 C 343.349 292.675, 343.522 294.587, 343.732 292.250 C 343.943 289.913, 343.943 286.087, 343.732 283.750 C 343.522 281.413, 343.349 283.325, 343.349 288 M 182.882 282.750 C 182.816 283.163, 182.835 283.893, 182.922 284.373 C 183.010 284.853, 182.365 284.970, 181.489 284.634 C 180.523 284.263, 180.149 284.433, 180.540 285.064 C 181.449 286.536, 183.278 285.711, 183.574 283.696 C 183.711 282.763, 183.638 282, 183.412 282 C 183.185 282, 182.947 282.337, 182.882 282.750 M 203.459 286.067 C 203.096 286.653, 203.070 287.403, 203.400 287.733 C 203.730 288.063, 204 287.822, 204 287.198 C 204 286.550, 204.714 286.337, 205.664 286.701 C 206.783 287.131, 207.091 286.957, 206.605 286.170 C 205.703 284.711, 204.325 284.666, 203.459 286.067 M 228 288.580 C 229.375 290.186, 230.613 291.688, 230.750 291.917 C 230.887 292.146, 230.986 291.696, 230.969 290.917 C 230.951 290.137, 229.714 288.636, 228.219 287.580 L 225.500 285.661 228 288.580 M 169.443 290.418 C 168.376 291.198, 167.840 292.173, 168.252 292.585 C 168.663 292.997, 169 292.782, 169 292.108 C 169 291.434, 169.403 291.131, 169.895 291.435 C 170.388 291.740, 171.048 291.316, 171.364 290.494 C 172.073 288.647, 171.876 288.639, 169.443 290.418 M 274.783 291.237 C 275.947 292.641, 280 294.346, 280 293.432 C 280 293.223, 278.538 292.295, 276.750 291.371 C 274.002 289.951, 273.698 289.930, 274.783 291.237 M 162.500 295.074 C 157.687 298.706, 157.416 299.293, 159.717 301.100 C 161.340 302.375, 161.377 302.343, 160.128 300.750 C 158.765 299.013, 158.843 298.866, 161.250 298.625 C 161.938 298.556, 162.500 297.921, 162.500 297.214 C 162.500 295.811, 165.019 293.894, 166.036 294.522 C 166.383 294.737, 166.667 294.257, 166.667 293.456 C 166.667 292.655, 166.629 292.013, 166.583 292.028 C 166.537 292.043, 164.700 293.414, 162.500 295.074 M 188.721 293.357 C 189.012 293.829, 188.182 293.945, 186.875 293.616 C 185.569 293.288, 185.086 293.285, 185.803 293.610 C 186.793 294.060, 186.673 294.549, 185.303 295.646 C 184.311 296.440, 185.525 296.114, 188 294.922 C 193.618 292.216, 193.664 292.171, 190.661 292.352 C 189.303 292.433, 188.430 292.886, 188.721 293.357 M 243.684 298.750 C 243.446 299.163, 243.612 300.400, 244.055 301.500 C 244.757 303.246, 244.868 303.151, 244.930 300.750 C 244.999 298.037, 244.531 297.286, 243.684 298.750 M 149.537 306.171 C 146.980 309.014, 144.450 312.277, 143.916 313.421 C 143.372 314.584, 143.947 314.201, 145.222 312.553 C 146.475 310.932, 149.245 307.669, 151.377 305.303 C 153.510 302.936, 155.014 301, 154.720 301 C 154.426 301, 152.093 303.327, 149.537 306.171 M 293.564 304.250 C 294.480 305.762, 294.898 307, 294.493 307 C 294.087 307, 294.311 307.670, 294.991 308.489 C 295.671 309.308, 296.626 309.731, 297.113 309.430 C 297.935 308.922, 298.430 310.386, 298.094 312.324 C 298.015 312.778, 298.413 312.863, 298.978 312.514 C 300.262 311.720, 299.180 309.667, 295.018 305 C 292.525 302.204, 292.232 302.053, 293.564 304.250 M 284.035 307.500 C 284.146 308.050, 284.184 309.118, 284.118 309.872 C 284.019 311.021, 283.714 311.027, 282.250 309.911 C 281.288 309.177, 281.822 310.022, 283.437 311.788 C 285.052 313.555, 286.852 314.964, 287.437 314.921 C 288.022 314.878, 287.935 314.614, 287.244 314.336 C 286.553 314.057, 286.285 313.348, 286.648 312.760 C 287.024 312.152, 286.840 311.981, 286.224 312.362 C 285.627 312.731, 284.856 312.575, 284.510 312.016 C 284.165 311.457, 284.319 311, 284.852 311 C 285.954 311, 285.790 308.457, 284.612 307.279 C 284.184 306.851, 283.924 306.950, 284.035 307.500 M 161.928 309.586 C 161.165 310.506, 161.305 310.778, 162.454 310.610 C 164.717 310.278, 166.479 308.333, 164.517 308.333 C 163.665 308.333, 162.500 308.897, 161.928 309.586 M 158.073 314.635 C 156.933 316.084, 156 316.929, 156 316.512 C 156 316.096, 155.396 316.256, 154.658 316.869 C 153.920 317.481, 152.922 317.649, 152.441 317.241 C 151.960 316.834, 152.169 317.288, 152.905 318.250 C 153.642 319.212, 154.377 320, 154.538 320 C 154.700 320, 156.258 318.200, 158 316 C 159.742 313.800, 160.938 312, 160.657 312 C 160.375 312, 159.212 313.186, 158.073 314.635 M 349.661 319.823 C 347.262 322.473, 347.615 323.385, 350.083 320.917 C 351.229 319.771, 351.976 318.643, 351.744 318.411 C 351.511 318.178, 350.574 318.813, 349.661 319.823 M 241.992 327.795 L 242.483 336.500 242.786 328.595 C 242.953 324.247, 242.732 320.330, 242.295 319.890 C 241.858 319.450, 241.721 323.008, 241.992 327.795 M 229.286 327.500 C 229.294 330.250, 229.488 331.256, 229.718 329.736 C 229.947 328.216, 229.941 325.966, 229.704 324.736 C 229.467 323.506, 229.279 324.750, 229.286 327.500 M 152.252 329.500 C 152.263 331.700, 152.468 332.482, 152.707 331.238 C 152.946 329.994, 152.937 328.194, 152.687 327.238 C 152.437 326.282, 152.241 327.300, 152.252 329.500 M 288.943 341.750 C 286.639 346.345, 286.639 346.611, 288.944 343.740 C 290.217 342.155, 291.658 341.279, 292.330 341.682 C 292.975 342.069, 292.884 341.624, 292.128 340.692 C 290.398 338.560, 290.571 338.502, 288.943 341.750 M 328.507 340.989 C 328.166 341.541, 328.537 341.731, 329.347 341.420 C 330.145 341.114, 331.099 341.352, 331.468 341.948 C 332.269 343.244, 334.006 342.376, 333.985 340.691 C 333.974 339.894, 333.685 339.949, 333.110 340.857 C 332.510 341.803, 332.043 341.878, 331.566 341.107 C 330.718 339.734, 329.316 339.680, 328.507 340.989 M 243.325 343.658 C 243.687 344.020, 243.486 344.915, 242.879 345.646 C 242.045 346.651, 242.180 347.132, 243.431 347.612 C 244.341 347.961, 245.274 348.059, 245.503 347.830 C 246.277 347.056, 244.776 343, 243.717 343 C 243.139 343, 242.963 343.296, 243.325 343.658 M 144.734 348.600 C 143.952 349.381, 146.058 354, 147.196 354 C 147.677 354, 147.509 352.988, 146.823 351.750 C 146.137 350.512, 145.671 349.163, 145.788 348.750 C 146.043 347.847, 145.556 347.778, 144.734 348.600 M 247.350 350.465 C 248.368 351.236, 248.904 352.347, 248.541 352.933 C 248.179 353.520, 248.359 354, 248.941 354 C 249.523 354, 250 353.415, 250 352.700 C 250 351.122, 247.993 348.988, 246.550 349.032 C 245.972 349.049, 246.333 349.694, 247.350 350.465 M 295.990 353.512 C 294.965 354.748, 294.438 354.793, 293.117 353.762 C 291.680 352.641, 291.653 352.695, 292.872 354.250 C 294.223 355.972, 294.149 356.126, 291.845 356.375 C 291.210 356.444, 290.566 357.349, 290.414 358.386 C 290.208 359.791, 291.140 359.292, 294.069 356.433 C 296.231 354.322, 298 352.460, 298 352.297 C 298 351.596, 297.157 352.106, 295.990 353.512 M 322.583 352.750 C 322.171 353.163, 321.489 353.500, 321.069 353.500 C 320.022 353.500, 306.984 366.318, 307.503 366.837 C 307.732 367.066, 310.404 364.788, 313.441 361.775 C 316.478 358.762, 319.234 356.567, 319.565 356.898 C 319.896 357.229, 320.017 356.845, 319.833 356.045 C 319.650 355.245, 320.040 354.570, 320.700 354.545 C 321.851 354.502, 324.963 352, 323.867 352 C 323.573 352, 322.996 352.337, 322.583 352.750 M 334.667 352.667 C 333.597 353.736, 333.900 356.180, 335.016 355.490 C 335.575 355.144, 335.797 354.481, 335.510 354.016 C 335.223 353.551, 335.553 352.943, 336.244 352.664 C 336.938 352.384, 337.016 352.123, 336.417 352.079 C 335.821 352.036, 335.033 352.300, 334.667 352.667 M 237.510 354.015 C 238.104 354.977, 237.872 355.165, 236.664 354.701 C 234.638 353.924, 234.534 354.368, 236.383 355.903 C 237.448 356.787, 237.898 356.707, 238.340 355.558 C 238.655 354.736, 238.413 353.755, 237.802 353.378 C 237.078 352.930, 236.976 353.153, 237.510 354.015 M 163.543 358.931 C 163.226 359.443, 163.425 360.144, 163.984 360.490 C 164.543 360.835, 165 360.773, 165 360.351 C 165 359.929, 167.005 361.552, 169.457 363.957 C 171.908 366.363, 173.638 368.776, 173.302 369.320 C 172.943 369.901, 173.207 369.990, 173.943 369.535 C 174.827 368.989, 173.632 367.177, 169.882 363.381 C 163.976 357.400, 164.334 357.651, 163.543 358.931 M 329.750 360.083 C 328.788 361.137, 328.380 362, 328.845 362 C 329.310 362, 330.505 361.100, 331.500 360 C 332.495 358.900, 332.903 358.038, 332.405 358.083 C 331.907 358.129, 330.712 359.029, 329.750 360.083 M 325.554 365.087 C 325.810 365.501, 325.002 366.677, 323.760 367.701 C 322.517 368.724, 320.614 370.672, 319.531 372.031 C 318.448 373.389, 319.910 372.267, 322.781 369.538 C 325.651 366.808, 328 364.521, 328 364.454 C 328 364.388, 327.345 364.333, 326.544 364.333 C 325.743 364.333, 325.297 364.672, 325.554 365.087 M 259.762 367.707 C 261.006 367.946, 262.806 367.937, 263.762 367.687 C 264.718 367.437, 263.700 367.241, 261.500 367.252 C 259.300 367.263, 258.518 367.468, 259.762 367.707 M 178.186 371.324 C 179.664 372.683, 180.564 374.138, 180.186 374.557 C 179.809 374.977, 180.063 374.997, 180.750 374.601 C 182.424 373.638, 182.456 373.693, 178.750 371.115 L 175.500 368.854 178.186 371.324 M 297.364 373.494 C 297.048 374.316, 296.454 374.781, 296.043 374.526 C 295.631 374.272, 294.494 374.650, 293.515 375.365 C 291.951 376.509, 291.933 376.667, 293.368 376.667 C 294.265 376.667, 295 376.318, 295 375.891 C 295 375.464, 295.804 375.270, 296.786 375.459 C 297.994 375.692, 298.571 375.188, 298.571 373.901 C 298.571 371.615, 298.141 371.470, 297.364 373.494 M 315 373.500 C 314.315 374.325, 314.090 375, 314.500 375 C 314.910 375, 314.635 375.788, 313.890 376.750 C 312.604 378.410, 312.641 378.410, 314.601 376.746 C 315.737 375.781, 316.667 374.319, 316.667 373.496 C 316.667 371.639, 316.544 371.639, 315 373.500 M 183.974 375.952 C 184.594 377.109, 185.528 377.792, 186.050 377.469 C 187.430 376.616, 187.244 376.201, 184.924 374.959 C 183.019 373.940, 182.941 374.022, 183.974 375.952 M 286.250 378.745 C 284.462 379.635, 283 380.716, 283 381.148 C 283 381.760, 288.751 378.979, 290.917 377.319 C 292.100 376.413, 289.088 377.333, 286.250 378.745 M 308.750 379.689 C 307.788 379.941, 307 380.590, 307 381.132 C 307 381.674, 306.480 381.797, 305.845 381.405 C 305.134 380.965, 304.962 381.130, 305.398 381.834 C 305.907 382.658, 306.789 382.529, 308.552 381.374 C 309.898 380.492, 311 379.597, 311 379.385 C 311 379.173, 310.887 379.052, 310.750 379.116 C 310.613 379.180, 309.712 379.438, 308.750 379.689 M 200.905 393.750 C 200.169 394.712, 199.960 395.166, 200.441 394.759 C 200.922 394.351, 201.939 394.534, 202.700 395.166 C 203.679 395.979, 204.397 396.003, 205.149 395.251 C 205.901 394.499, 205.669 394.233, 204.357 394.343 C 203.335 394.430, 202.613 393.938, 202.750 393.250 C 203.096 391.521, 202.485 391.687, 200.905 393.750 M 242.762 401.707 C 244.006 401.946, 245.806 401.937, 246.762 401.687 C 247.718 401.437, 246.700 401.241, 244.500 401.252 C 242.300 401.263, 241.518 401.468, 242.762 401.707" stroke="none" fill="#f9f9fa" fill-rule="evenodd"/></svg>