<svg xmlns="http://www.w3.org/2000/svg" width="512" height="512" viewBox="0 0 512 512" version="1.1"><path d="M 106.500 80.344 C 95.557 83.973, 86.978 91.474, 82.300 101.500 C 79.850 106.751, 79.500 108.689, 79.500 117.021 C 79.500 132.337, 80.953 134.571, 109.202 162.695 C 137.073 190.442, 138.687 191.479, 154 191.479 C 162.200 191.479, 164.283 191.114, 169.218 188.810 C 177.194 185.086, 184.352 178.062, 188.259 170.126 C 191.227 164.096, 191.500 162.739, 191.500 154 C 191.500 138.660, 190.055 136.437, 161.798 108.305 C 134.834 81.461, 132.416 79.842, 118.500 79.318 C 113.712 79.138, 108.894 79.550, 106.500 80.344 M 144.286 320.393 C 136.121 323.056, 131.276 327.078, 107.805 350.676 C 79.321 379.315, 78.500 380.598, 78.500 396.500 C 78.500 405.531, 78.784 407.079, 81.431 412.478 C 85.164 420.094, 91.906 426.836, 99.522 430.569 C 104.923 433.217, 106.466 433.500, 115.521 433.500 C 131.541 433.500, 133.301 432.352, 162.600 402.805 C 191.654 373.503, 192.499 372.193, 192.500 356.479 C 192.500 347.194, 192.261 345.973, 189.250 339.856 C 182.887 326.932, 171.726 319.822, 157 319.313 C 151.717 319.130, 146.905 319.539, 144.286 320.393 M 345.579 322.103 C 334.104 326.049, 326.285 333.616, 321.920 345 C 318.787 353.169, 319.471 366.334, 323.457 374.556 C 327.423 382.737, 369.285 425.279, 377.850 429.831 C 397.216 440.125, 420.711 432.477, 429.989 412.859 C 435.369 401.482, 434.736 388.101, 428.294 377.025 C 425.295 371.869, 386.973 332.648, 379.703 327.294 C 370.152 320.260, 356.831 318.234, 345.579 322.103" stroke="none" fill="#389238" fill-rule="evenodd"/><path d="M 243.111 21.953 C 233.432 25.538, 225.931 32.638, 221.235 42.662 L 218.500 48.500 218.192 83.610 C 217.898 117.202, 217.977 118.994, 220.009 125.027 C 225.553 141.483, 238.927 151.214, 256 151.214 C 272.416 151.214, 285.693 141.996, 291.596 126.500 C 293.342 121.915, 293.500 118.473, 293.500 85 L 293.500 48.500 290.413 42 C 286.660 34.095, 279.631 26.930, 272.075 23.305 C 264.419 19.633, 251.061 19.009, 243.111 21.953 M 48.746 219.057 C 38.312 221.597, 28.191 229.838, 23.318 239.761 C 20.771 244.949, 20.500 246.508, 20.500 256 C 20.500 265.492, 20.771 267.051, 23.318 272.239 C 27.061 279.860, 34.029 286.642, 41.997 290.418 L 48.500 293.500 85 293.500 C 125.237 293.500, 126.066 293.391, 135.731 286.811 C 156.282 272.819, 156.282 239.116, 135.731 225.206 C 125.833 218.507, 125.982 218.529, 87.500 218.326 C 68.250 218.225, 50.811 218.554, 48.746 219.057 M 386.579 220.074 C 370.411 225.715, 360.786 239.122, 360.786 256 C 360.786 272.416, 370.004 285.693, 385.500 291.596 C 390.085 293.342, 393.527 293.500, 427 293.500 L 463.500 293.500 470.003 290.418 C 477.971 286.642, 484.939 279.860, 488.682 272.239 C 491.229 267.051, 491.500 265.492, 491.500 256 C 491.500 246.508, 491.229 244.949, 488.682 239.761 C 484.939 232.140, 477.971 225.358, 470.003 221.582 L 463.500 218.500 428 218.254 C 394.347 218.020, 392.192 218.115, 386.579 220.074 M 242.908 362.845 C 232.530 367.008, 226.171 373.133, 221.188 383.765 L 218.500 389.500 218.500 426.500 L 218.500 463.500 221.587 470 C 225.320 477.862, 232.328 485.031, 239.929 488.764 C 244.926 491.218, 246.583 491.500, 256 491.500 C 265.492 491.500, 267.051 491.229, 272.239 488.682 C 279.860 484.939, 286.642 477.971, 290.418 470.003 L 293.500 463.500 293.500 426.500 L 293.500 389.500 290.326 382.799 C 286.432 374.580, 280.298 368.275, 272.446 364.419 C 267.329 361.907, 265.176 361.465, 257 361.251 C 249.661 361.059, 246.455 361.421, 242.908 362.845" stroke="none" fill="#82cd48" fill-rule="evenodd"/></svg>