<svg width="16" height="16" viewBox="0 0 16 16" fill="none" xmlns="http://www.w3.org/2000/svg"><path fill-rule="evenodd" clip-rule="evenodd" d="M8.88019 0C9.06409 0 9.24763 0.183904 9.24763 0.367444L9.61508 2.02112L10.2276 2.20503L11.6974 1.10269C11.8197 0.980335 12.0648 0.980335 12.1872 1.10269L13.7793 2.38893C13.9017 2.57283 13.9632 2.75637 13.8405 2.94028L13.1056 4.41005L13.4119 4.9614L15.2491 5.02258C15.433 5.02258 15.6165 5.20648 15.6165 5.39002L15.984 7.41114C16.0452 7.59505 15.9228 7.77859 15.7389 7.83977L14.2079 8.51347L14.0856 9.126L15.433 10.3507C15.5554 10.4731 15.6169 10.7181 15.4942 10.8405L14.5142 12.6165C14.3918 12.8004 14.2079 12.8616 14.0244 12.8004L12.3707 12.3106L11.9421 12.7393L12.1872 14.5765C12.1872 14.7604 12.0648 14.9439 11.8809 15.0051L9.98252 15.6788C9.79862 15.74 9.61508 15.6788 9.49272 15.5564L8.57393 14.0867H7.9614L6.98143 15.6788C6.85907 15.8627 6.61398 15.9239 6.43008 15.8012L4.53168 15.1275C4.34778 15.0663 4.22542 14.8824 4.2866 14.6988L4.4705 13.0452L4.04188 12.6165L2.26584 13.1679C2.08194 13.2291 1.83722 13.1679 1.77604 12.984L0.734887 11.2079C0.673707 11.024 0.673707 10.8405 0.857247 10.7181L2.08194 9.55463L1.95958 8.9421L0.245084 8.20685C0.0611799 8.14567 0 7.96176 0 7.77822L0.367444 5.7571C0.428623 5.5732 0.551347 5.45084 0.796067 5.45084L2.44974 5.32848L2.75601 4.77713L1.89876 3.185C1.83758 3.00109 1.83758 2.81755 2.02112 2.69519L3.55208 1.34778C3.73598 1.22542 3.9807 1.22542 4.10342 1.34778L5.45084 2.38893L6.00219 2.14385L6.43081 0.367808C6.43081 0.183904 6.61435 0 6.79825 0H8.88055H8.88019ZM10.2276 5.75637C9.67626 5.14385 8.88019 4.83758 8.02294 4.83758C7.1657 4.83758 6.36926 5.14385 5.81828 5.75637C5.20575 6.30772 4.89949 7.10379 4.89949 7.96103C4.89949 8.81828 5.20575 9.61471 5.81828 10.1657C6.36963 10.717 7.1657 11.0845 8.02294 11.0845C8.88019 11.0845 9.67662 10.717 10.2276 10.1657C10.779 9.61435 11.1464 8.81828 11.1464 7.96103C11.1464 7.10379 10.779 6.30736 10.2276 5.75637Z" fill="#527491"></path></svg>