<svg xmlns="http://www.w3.org/2000/svg" width="512" height="512" viewBox="0 0 512 512" version="1.1"><path d="M 230.623 41.136 C 222.117 42.228, 205.383 45.682, 203.542 46.727 C 202.601 47.260, 210.525 53.612, 229.101 67.214 L 256.024 86.929 282.962 67.215 C 297.778 56.372, 309.585 47.204, 309.200 46.841 C 308.200 45.899, 290.023 42.292, 280.026 41.051 C 270.083 39.818, 240.496 39.868, 230.623 41.136 M 169.500 57.873 C 147.360 67.247, 129.491 78.765, 110.372 95.984 C 101.618 103.868, 88.005 118.696, 88.002 120.351 C 88.001 120.819, 93.688 138.819, 100.640 160.351 L 113.279 199.500 147.474 213.250 C 166.281 220.813, 182.240 227, 182.939 227 C 183.638 227, 198.338 216.802, 215.605 204.337 L 247 181.675 247 142.417 L 247 103.160 213.521 78.837 C 195.108 65.459, 179.696 54.412, 179.271 54.288 C 178.847 54.164, 174.450 55.777, 169.500 57.873 M 299.996 78.339 L 266.500 102.657 266.239 142.220 L 265.977 181.782 296.995 204.141 C 314.056 216.439, 328.798 226.602, 329.757 226.726 C 330.716 226.851, 346.797 220.776, 365.493 213.226 L 399.486 199.500 412.188 160.500 C 419.175 139.050, 424.915 120.899, 424.945 120.165 C 424.975 119.431, 418.813 112.646, 411.250 105.086 C 391.028 84.874, 375.405 73.604, 351.500 61.985 C 343.800 58.242, 336.598 54.919, 335.496 54.601 C 333.985 54.164, 325.244 60.009, 299.996 78.339 M 69.738 145.184 C 65.393 152.599, 58.193 167.412, 54.446 176.644 C 47.603 193.506, 40.001 226.186, 40 238.743 L 40 242.986 66.750 223.816 C 81.463 213.273, 93.659 204.529, 93.854 204.386 C 94.332 204.034, 73.948 142.717, 73.009 141.684 C 72.601 141.235, 71.129 142.810, 69.738 145.184 M 438.788 141.599 C 437.774 143.364, 417.798 204.130, 418.146 204.391 C 418.341 204.538, 430.538 213.252, 445.250 223.757 L 472 242.856 472 239.306 C 472 232.520, 468.887 214.421, 465.452 201.240 C 461.259 185.145, 456.778 173.504, 448.424 157 C 441.493 143.306, 439.571 140.234, 438.788 141.599 M 226.508 219.925 C 210.563 231.417, 197.167 241.423, 196.739 242.160 C 196.276 242.959, 200.524 257.414, 207.273 278 L 218.584 312.500 256.009 312.500 L 293.435 312.500 304.715 278 C 310.919 259.025, 315.808 242.998, 315.580 242.384 C 315.186 241.323, 258.599 200.143, 256.500 199.389 C 255.950 199.192, 242.454 208.433, 226.508 219.925 M 371.715 231.391 C 352.623 239.204, 336.592 246.026, 336.090 246.549 C 335.589 247.072, 329.906 263.890, 323.462 283.922 C 312.909 316.731, 311.883 320.559, 313.123 322.499 C 313.880 323.683, 323.444 335.761, 334.376 349.337 L 354.253 374.021 396.698 373.761 L 439.143 373.500 445.213 363 C 460.642 336.312, 471.674 300.219, 472.292 274.405 L 472.500 265.713 443.500 244.363 C 427.550 232.621, 412.684 221.702, 410.464 220.098 L 406.428 217.183 371.715 231.391 M 73.285 242.343 L 40.070 266.500 40.053 271.500 C 40.028 279.169, 42.696 296.192, 45.949 309.118 C 50.861 328.636, 59.164 348.804, 69.471 366.250 L 74.049 374 116.306 374 L 158.564 374 179.918 347.462 L 201.272 320.924 189.489 284.212 C 183.008 264.020, 177.210 247.008, 176.603 246.406 C 175.605 245.416, 107.776 217.873, 106.879 218.093 C 106.671 218.144, 91.553 229.057, 73.285 242.343 M 199.101 354.238 C 189.219 366.482, 179.535 378.551, 177.583 381.058 L 174.032 385.616 186.880 425.058 L 199.727 464.500 205.114 465.709 C 238.954 473.308, 273.647 473.315, 306.901 465.729 L 312.302 464.497 325.139 425.076 L 337.977 385.655 334.033 380.577 C 331.863 377.785, 322.306 365.825, 312.794 354 L 295.500 332.500 256.285 332.238 L 217.070 331.977 199.101 354.238 M 90 393.809 C 90 395.289, 101.290 407.720, 108.523 414.204 C 122.046 426.326, 138.450 438.186, 152.340 445.883 C 159.580 449.894, 176.113 457.220, 176.670 456.663 C 176.897 456.436, 172.430 442.132, 166.744 424.876 L 156.406 393.500 123.203 393.237 C 104.941 393.092, 90 393.349, 90 393.809 M 355.683 393.750 C 354.516 395.761, 335.870 456.203, 336.287 456.621 C 337.586 457.919, 363.498 444.740, 375.500 436.676 C 392.475 425.272, 412.860 407.303, 419.812 397.615 L 423.124 393 389.621 393 C 371.194 393, 355.922 393.337, 355.683 393.750" stroke="none" fill="#000000" fill-rule="evenodd"/></svg>